# xmcd CD database file
#
# Track frame offsets:
#	150
#	18742
#	34664
#	57282
#	76375
#	92010
#	115335
#	131039
#	142650
#	156307
#	175597
#	193900
#	209220
#	232740
#	261337
#
# Disc length: 3743 seconds
#
# Revision: 2
# Processed by: cddbd v1.5.2PL0 Copyright (c) Steve Scherf et al.
# Submitted via: CDex 1.70beta2
#
DISCID=d10e9d0f
DTITLE=小林桂 - P.S. I LOVE YOU
DYEAR=1998
DGENRE=Jazz
TTITLE0=Love You Madly
TTITLE1=Candy
TTITLE2=Prelude To A Kiss
TTITLE3=On A Clear Day
TTITLE4=He's A Tramp
TTITLE5=I Didn't Know About You
TTITLE6=Where Or When
TTITLE7=It Don't Mean
TTITLE8=If I Had You
TTITLE9=But Not For Me
TTITLE10=Someone's Waiting For You
TTITLE11=I Let A Song Go Out Of My Heart
TTITLE12=For All We Know
TTITLE13=Old Devil Moon
TTITLE14=P.S. I Love You
EXTD=YEAR: 1998
EXTT0=
EXTT1=
EXTT2=
EXTT3=
EXTT4=
EXTT5=
EXTT6=
EXTT7=
EXTT8=
EXTT9=
EXTT10=
EXTT11=
EXTT12=
EXTT13=
EXTT14=
PLAYORDER=
